<svg width="27" height="27" viewBox="0 0 27 27" fill="none" xmlns="http://www.w3.org/2000/svg">
<path d="M18.9933 20.328L25.3887 26.7234C25.5707 26.9054 25.8133 26.9991 26.0558 26.9991C26.2984 26.9991 26.541 26.9054 26.723 26.7234C27.0923 26.3541 27.0923 25.7531 26.723 25.3837L20.3275 18.9883C22.0367 16.9759 23.0676 14.3737 23.0676 11.5343C23.0676 5.17196 17.8907 0.000488281 11.5338 0.000488281C5.17699 0.000488281 0 5.17202 0 11.5344C0 17.8968 5.17699 23.0682 11.5393 23.0682C14.3787 23.0682 16.981 22.0371 18.9933 20.328ZM1.89106 11.5344C1.89106 6.21409 6.219 1.89166 11.5338 1.89166C16.8486 1.89166 21.1766 6.2196 21.1766 11.5344C21.1766 16.8492 16.8486 21.1772 11.5338 21.1772C6.219 21.1772 1.89106 16.8491 1.89106 11.5344Z" fill="#CAC5CD"/>
</svg>
