<svg width="22" height="18" viewBox="0 0 22 18" fill="none" xmlns="http://www.w3.org/2000/svg">
<path d="M10.6363 12.2727C10.4407 12.2727 10.2536 12.1991 10.119 12.0693L5.10823 7.24789C4.67396 6.83062 4.99656 6.13633 5.62553 6.13633H8.25024V1.09575C8.25024 0.491755 8.78568 -3.05176e-05 9.44328 -3.05176e-05H11.8294C12.487 -3.05176e-05 13.0224 0.491755 13.0224 1.09575V6.13633H15.6471C16.2761 6.13633 16.5987 6.83062 16.1644 7.24789L11.1536 12.0693C11.0191 12.1991 10.832 12.2727 10.6363 12.2727Z" fill="white"/>
<path d="M19.7216 18H1.55114C0.695796 18 0 17.3577 0 16.5682V16.1591C0 15.3695 0.695796 14.7272 1.55114 14.7272H19.7216C20.5769 14.7272 21.2727 15.3695 21.2727 16.1591V16.5682C21.2727 17.3577 20.5769 18 19.7216 18Z" fill="white"/>
</svg>
