<svg width="266" height="52" viewBox="0 0 266 52" fill="none" xmlns="http://www.w3.org/2000/svg">
<path d="M49.666 20.3652C52.778 23.4772 52.778 28.5228 49.666 31.6348L31.6348 49.666C28.5228 52.778 23.4772 52.778 20.3652 49.666L2.33399 31.6348C-0.777999 28.5228 -0.777997 23.4772 2.334 20.3652L20.3652 2.334C23.4772 -0.777998 28.5228 -0.777999 31.6348 2.33399L49.666 20.3652Z" fill="url(#paint0_linear_1003_564)"/>
<path fill-rule="evenodd" clip-rule="evenodd" d="M25.9752 42.7043C35.2146 42.7043 42.7047 35.2143 42.7047 25.9748C42.7047 16.7353 35.2146 9.24524 25.9752 9.24524C16.7357 9.24524 9.24561 16.7353 9.24561 25.9748C9.24561 35.2143 16.7357 42.7043 25.9752 42.7043ZM28.5122 25.5469C29.8955 24.6668 30.8175 23.0887 30.8175 21.2883C30.8175 18.5274 28.6493 16.2893 25.9747 16.2893C23.3001 16.2893 21.132 18.5274 21.132 21.2883C21.132 23.0887 22.054 24.6668 23.4372 25.5469L21.307 34.8924C21.2176 35.2846 21.5059 35.6604 21.8963 35.6604H30.0532C30.4435 35.6604 30.7318 35.2846 30.6424 34.8924L28.5122 25.5469Z" fill="white"/>
<path d="M66.8906 20.6787V36H62.7983V20.6787H66.8906ZM62.5435 16.6855C62.5435 16.0908 62.7511 15.5999 63.1665 15.2129C63.5819 14.8258 64.1388 14.6323 64.8374 14.6323C65.5265 14.6323 66.0788 14.8258 66.4941 15.2129C66.9189 15.5999 67.1313 16.0908 67.1313 16.6855C67.1313 17.2803 66.9189 17.7712 66.4941 18.1582C66.0788 18.5452 65.5265 18.7388 64.8374 18.7388C64.1388 18.7388 63.5819 18.5452 63.1665 18.1582C62.7511 17.7712 62.5435 17.2803 62.5435 16.6855ZM81.249 30.605C81.249 30.2368 81.1924 29.9064 81.0791 29.6138C80.9753 29.3117 80.777 29.0379 80.4844 28.7925C80.1917 28.5376 79.7811 28.2874 79.2524 28.042C78.7238 27.7965 78.0394 27.5417 77.1992 27.2773C76.2646 26.9753 75.3773 26.6354 74.5371 26.2578C73.7064 25.8802 72.9701 25.4412 72.3281 24.9409C71.6956 24.4312 71.1953 23.8411 70.8271 23.1709C70.4684 22.5007 70.2891 21.7218 70.2891 20.8345C70.2891 19.9754 70.4779 19.1966 70.8555 18.498C71.2331 17.79 71.7617 17.1859 72.4414 16.6855C73.1211 16.1758 73.9235 15.784 74.8486 15.5103C75.7832 15.2365 76.8075 15.0996 77.9214 15.0996C79.4412 15.0996 80.7676 15.3734 81.9004 15.9209C83.0332 16.4684 83.9111 17.2189 84.5342 18.1724C85.1667 19.1258 85.4829 20.2161 85.4829 21.4434H81.2632C81.2632 20.8392 81.1357 20.3105 80.8809 19.8574C80.6354 19.3949 80.2578 19.0314 79.748 18.7671C79.2477 18.5028 78.6152 18.3706 77.8506 18.3706C77.1143 18.3706 76.5007 18.4839 76.0098 18.7104C75.5189 18.9276 75.1507 19.2249 74.9053 19.6025C74.6598 19.9707 74.5371 20.3861 74.5371 20.8486C74.5371 21.1979 74.6221 21.5142 74.792 21.7974C74.9714 22.0806 75.2357 22.3449 75.585 22.5903C75.9342 22.8358 76.3638 23.0671 76.8735 23.2842C77.3833 23.5013 77.9733 23.7137 78.6436 23.9214C79.7669 24.2612 80.7534 24.6436 81.603 25.0684C82.4621 25.4932 83.1795 25.9699 83.7554 26.4985C84.3312 27.0272 84.7655 27.6266 85.0581 28.2969C85.3507 28.9671 85.4971 29.7271 85.4971 30.5767C85.4971 31.4735 85.3224 32.2759 84.9731 32.9839C84.6239 33.6919 84.1188 34.2913 83.458 34.7822C82.7972 35.2731 82.009 35.646 81.0933 35.9009C80.1776 36.1558 79.1533 36.2832 78.0205 36.2832C77.001 36.2832 75.9956 36.151 75.0044 35.8867C74.0132 35.613 73.1117 35.2023 72.2998 34.6548C71.4974 34.1073 70.8555 33.4087 70.374 32.5591C69.8926 31.7095 69.6519 30.7041 69.6519 29.543H73.9141C73.9141 30.1849 74.0132 30.7277 74.2114 31.1714C74.4097 31.6151 74.6882 31.9738 75.0469 32.2476C75.415 32.5213 75.8493 32.7196 76.3496 32.8423C76.8594 32.965 77.4163 33.0264 78.0205 33.0264C78.7568 33.0264 79.361 32.9225 79.833 32.7148C80.3145 32.5072 80.6685 32.2192 80.895 31.8511C81.131 31.4829 81.249 31.0675 81.249 30.605ZM95.6357 20.6787V23.5674H86.7148V20.6787H95.6357ZM88.9238 16.8979H93.002V31.3838C93.002 31.8275 93.0586 32.1673 93.1719 32.4033C93.2946 32.6393 93.474 32.8045 93.71 32.8989C93.946 32.9839 94.2433 33.0264 94.6021 33.0264C94.8569 33.0264 95.0835 33.0169 95.2817 32.998C95.4894 32.9697 95.6641 32.9414 95.8057 32.9131L95.8198 35.915C95.4705 36.0283 95.0929 36.118 94.687 36.1841C94.2811 36.2502 93.8327 36.2832 93.3418 36.2832C92.445 36.2832 91.6615 36.1369 90.9912 35.8442C90.3304 35.5422 89.8206 35.0607 89.4619 34.3999C89.1032 33.7391 88.9238 32.8706 88.9238 31.7944V16.8979ZM96.9385 28.4951V28.1978C96.9385 27.0744 97.099 26.0407 97.4199 25.0967C97.7409 24.1432 98.2082 23.3172 98.8218 22.6187C99.4354 21.9201 100.191 21.3773 101.087 20.9902C101.984 20.5938 103.013 20.3955 104.174 20.3955C105.335 20.3955 106.369 20.5938 107.275 20.9902C108.182 21.3773 108.942 21.9201 109.555 22.6187C110.178 23.3172 110.65 24.1432 110.971 25.0967C111.292 26.0407 111.453 27.0744 111.453 28.1978V28.4951C111.453 29.609 111.292 30.6427 110.971 31.5962C110.65 32.5402 110.178 33.3662 109.555 34.0742C108.942 34.7728 108.186 35.3156 107.29 35.7026C106.393 36.0897 105.364 36.2832 104.203 36.2832C103.042 36.2832 102.008 36.0897 101.102 35.7026C100.205 35.3156 99.4448 34.7728 98.8218 34.0742C98.2082 33.3662 97.7409 32.5402 97.4199 31.5962C97.099 30.6427 96.9385 29.609 96.9385 28.4951ZM101.017 28.1978V28.4951C101.017 29.137 101.073 29.7365 101.187 30.2935C101.3 30.8504 101.479 31.3413 101.725 31.7661C101.979 32.1815 102.31 32.5072 102.716 32.7432C103.122 32.9792 103.617 33.0972 104.203 33.0972C104.769 33.0972 105.255 32.9792 105.661 32.7432C106.067 32.5072 106.393 32.1815 106.638 31.7661C106.884 31.3413 107.063 30.8504 107.176 30.2935C107.299 29.7365 107.36 29.137 107.36 28.4951V28.1978C107.36 27.5747 107.299 26.9894 107.176 26.4419C107.063 25.8849 106.879 25.394 106.624 24.9692C106.379 24.535 106.053 24.1951 105.647 23.9497C105.241 23.7043 104.75 23.5815 104.174 23.5815C103.598 23.5815 103.108 23.7043 102.702 23.9497C102.305 24.1951 101.979 24.535 101.725 24.9692C101.479 25.394 101.3 25.8849 101.187 26.4419C101.073 26.9894 101.017 27.5747 101.017 28.1978ZM118.037 24.0205V36H113.959V20.6787H117.796L118.037 24.0205ZM122.653 20.5796L122.583 24.3604C122.384 24.332 122.144 24.3084 121.86 24.2896C121.587 24.2612 121.336 24.2471 121.11 24.2471C120.534 24.2471 120.034 24.3226 119.609 24.4736C119.194 24.6152 118.844 24.8276 118.561 25.1108C118.287 25.394 118.08 25.7386 117.938 26.1445C117.806 26.5505 117.73 27.013 117.711 27.5322L116.89 27.2773C116.89 26.2861 116.989 25.3752 117.188 24.5444C117.386 23.7043 117.674 22.9727 118.051 22.3496C118.438 21.7266 118.91 21.2451 119.467 20.9053C120.024 20.5654 120.661 20.3955 121.379 20.3955C121.605 20.3955 121.837 20.4144 122.073 20.4521C122.309 20.4805 122.502 20.5229 122.653 20.5796ZM128.884 20.6787V36H124.792V20.6787H128.884ZM124.537 16.6855C124.537 16.0908 124.744 15.5999 125.16 15.2129C125.575 14.8258 126.132 14.6323 126.831 14.6323C127.52 14.6323 128.072 14.8258 128.487 15.2129C128.912 15.5999 129.125 16.0908 129.125 16.6855C129.125 17.2803 128.912 17.7712 128.487 18.1582C128.072 18.5452 127.52 18.7388 126.831 18.7388C126.132 18.7388 125.575 18.5452 125.16 18.1582C124.744 17.7712 124.537 17.2803 124.537 16.6855ZM139.306 36.2832C138.116 36.2832 137.049 36.0944 136.105 35.7168C135.161 35.3298 134.359 34.7964 133.698 34.1167C133.047 33.437 132.547 32.6488 132.197 31.752C131.848 30.8457 131.673 29.8828 131.673 28.8633V28.2969C131.673 27.1357 131.839 26.0737 132.169 25.1108C132.499 24.1479 132.971 23.3125 133.585 22.6045C134.208 21.8965 134.963 21.3537 135.851 20.9761C136.738 20.589 137.739 20.3955 138.853 20.3955C139.938 20.3955 140.901 20.5749 141.741 20.9336C142.581 21.2923 143.285 21.8021 143.851 22.4629C144.427 23.1237 144.861 23.9167 145.154 24.8418C145.446 25.7575 145.593 26.777 145.593 27.9004V29.5996H133.415V26.8809H141.585V26.5693C141.585 26.0029 141.482 25.4979 141.274 25.0542C141.076 24.6011 140.774 24.2424 140.368 23.978C139.962 23.7137 139.443 23.5815 138.81 23.5815C138.272 23.5815 137.809 23.6995 137.422 23.9355C137.035 24.1715 136.719 24.502 136.474 24.9268C136.238 25.3516 136.058 25.8519 135.936 26.4277C135.822 26.9941 135.766 27.6172 135.766 28.2969V28.8633C135.766 29.4769 135.851 30.0433 136.021 30.5625C136.2 31.0817 136.45 31.5301 136.771 31.9077C137.101 32.2853 137.498 32.578 137.96 32.7856C138.432 32.9933 138.966 33.0972 139.561 33.0972C140.297 33.0972 140.981 32.9556 141.614 32.6724C142.256 32.3797 142.808 31.9408 143.271 31.3555L145.253 33.5078C144.932 33.9704 144.493 34.4141 143.936 34.8389C143.389 35.2637 142.728 35.613 141.954 35.8867C141.18 36.151 140.297 36.2832 139.306 36.2832ZM156.199 31.7661C156.199 31.4735 156.114 31.2091 155.944 30.9731C155.774 30.7371 155.458 30.52 154.995 30.3218C154.542 30.1141 153.886 29.9253 153.027 29.7554C152.253 29.5854 151.531 29.373 150.86 29.1182C150.2 28.8538 149.624 28.5376 149.133 28.1694C148.651 27.8013 148.274 27.367 148 26.8667C147.726 26.3569 147.589 25.7764 147.589 25.125C147.589 24.4831 147.726 23.8789 148 23.3125C148.283 22.7461 148.684 22.2458 149.204 21.8115C149.732 21.3678 150.374 21.0233 151.129 20.7778C151.894 20.5229 152.753 20.3955 153.707 20.3955C155.038 20.3955 156.18 20.6079 157.133 21.0327C158.096 21.4575 158.833 22.0428 159.342 22.7886C159.861 23.5249 160.121 24.3651 160.121 25.3091H156.043C156.043 24.9126 155.958 24.5586 155.788 24.2471C155.628 23.9261 155.373 23.6759 155.023 23.4966C154.684 23.3078 154.24 23.2134 153.692 23.2134C153.239 23.2134 152.847 23.2936 152.517 23.4541C152.187 23.6051 151.932 23.8128 151.752 24.0771C151.583 24.332 151.498 24.6152 151.498 24.9268C151.498 25.1628 151.545 25.3752 151.639 25.564C151.743 25.7433 151.908 25.9085 152.135 26.0596C152.361 26.2106 152.654 26.3522 153.013 26.4844C153.381 26.6071 153.834 26.7204 154.372 26.8242C155.477 27.0508 156.463 27.3481 157.332 27.7163C158.2 28.075 158.889 28.5659 159.399 29.189C159.909 29.8026 160.164 30.6097 160.164 31.6104C160.164 32.29 160.013 32.9131 159.71 33.4795C159.408 34.0459 158.974 34.5415 158.408 34.9663C157.841 35.3817 157.162 35.7074 156.369 35.9434C155.585 36.1699 154.702 36.2832 153.721 36.2832C152.295 36.2832 151.087 36.0283 150.096 35.5186C149.114 35.0088 148.368 34.3621 147.858 33.5786C147.358 32.7856 147.108 31.9738 147.108 31.1431H150.974C150.993 31.7 151.134 32.1484 151.398 32.4883C151.672 32.8281 152.017 33.0736 152.432 33.2246C152.857 33.3757 153.315 33.4512 153.806 33.4512C154.334 33.4512 154.773 33.3804 155.123 33.2388C155.472 33.0877 155.736 32.8895 155.916 32.644C156.104 32.3892 156.199 32.0965 156.199 31.7661Z" fill="white"/>
<defs>
<linearGradient id="paint0_linear_1003_564" x1="25.9748" y1="25.9748" x2="51.9496" y2="25.975" gradientUnits="userSpaceOnUse">
<stop stop-color="#E50097"/>
<stop offset="1" stop-color="#E50097"/>
</linearGradient>
</defs>
</svg>
